# xmcd
#
# Track frame offsets: 
#        150
#        19462
#        46800
#        66112
#
# Disc length: 1241 seconds
#
# Revision: 1
# Processed by: cddbd v1.5.2PL0 Copyright (c) Steve Scherf et al.
# Submitted via: ExactAudioCopy v1.3
#
DISCID=2f04d704
DTITLE=竹内まりや - ロンリー・ウーマン
DYEAR=1996
DGENRE=JPop
TTITLE0=ロンリー・ウーマン
TTITLE1=Tell me ,tell me
TTITLE2=ロンリー・ウーマン (オリジナル・カラオケ)
TTITLE3=Tell me, tell me (オリジナル・カラオケ）
EXTD=
EXTT0=
EXTT1=
EXTT2=
EXTT3=
PLAYORDER=
